# xmcd CD database file
#
# Track frame offsets:
#	150
#	12968
#	25294
#	38448
#	52375
#	65169
#	79831
#	91075
#	102462
#	116081
#	129441
#	141668
#
# Disc length: 2129 seconds
#
# Revision: 0
# Processed by: cddbd v1.5.2PL0 Copyright (c) Steve Scherf et al.
# Submitted via: CDex 1.51
#
DISCID=aa084f0c
DTITLE=Die Albtalstreuner - Auf Nach Schottland 
DYEAR=1999
DGENRE=Volkstümlich
TTITLE0=Auf nach Schottland 
TTITLE1=Rendezvous im Kerzenschein 
TTITLE2=Was macht die Sau 
TTITLE3=Ich  wohn gleich um die Ecke 
TTITLE4=Jubel  Trubel  Heiterkeit 
TTITLE5=Heimat deine höh'n 
TTITLE6=Resi, mach dei Fenster auf 
TTITLE7=Ferien daheim 
TTITLE8=Erinnerungen an zuhause 
TTITLE9=Schlitzohr'n 
TTITLE10=Echo der Berge 
TTITLE11=Wie wunderbar 
EXTD=YEAR: 1999
EXTT0=
EXTT1=
EXTT2=
EXTT3=
EXTT4=
EXTT5=
EXTT6=
EXTT7=
EXTT8=
EXTT9=
EXTT10=
EXTT11=
PLAYORDER=
